<svg version="1.1" id="Layer_1" xmlns="http://www.w3.org/2000/svg" xmlns:xlink="http://www.w3.org/1999/xlink" x="0px" y="0px"
	 width="100%" viewBox="0 0 900 512" enable-background="new 0 0 900 512" xml:space="preserve">

<path fill="#02F4BF" opacity="1.000000" stroke="none" 
	d="
M688.145081,400.985596 
	C674.707581,388.437988 661.380981,375.768768 647.796936,363.381866 
	C637.224121,353.740784 625.473022,345.583221 610.846680,344.210907 
	C595.471619,342.768311 580.887268,345.202209 568.405701,355.927460 
	C554.063477,368.251526 542.322876,382.823364 530.206055,397.156067 
	C517.887207,411.727631 505.034912,425.849396 492.360291,440.118469 
	C481.871643,451.926575 470.073914,462.275940 457.178284,471.389801 
	C444.016846,480.691467 429.622040,487.110657 413.654999,489.564667 
	C412.330200,489.768311 409.789032,487.548462 409.162781,485.931763 
	C404.424469,473.699371 400.226288,461.257355 395.464447,449.034637 
	C389.886230,434.716431 383.913391,420.551880 378.103607,406.323975 
	C372.514771,392.637024 365.815033,379.640106 355.985199,368.376343 
	C348.674835,359.999603 339.723938,355.272278 328.676025,356.179993 
	C322.466248,356.690186 316.430664,359.128174 310.258209,360.418304 
	C308.711670,360.741486 306.562683,360.519836 305.329620,359.646393 
	C291.925842,350.151520 278.705505,340.398010 265.322510,330.873230 
	C251.687027,321.168762 237.925858,311.640839 224.219254,302.036255 
	C222.363373,300.735779 220.504883,299.439087 218.160400,297.662506 
	C217.097092,297.142731 216.520996,297.101074 215.944901,297.059387 
	C215.944901,297.059387 216.003571,297.008148 216.191711,296.676392 
	C215.894104,296.229187 215.408340,296.113708 214.922592,295.998260 
	C214.922592,295.998260 215.005844,295.995117 215.039261,295.654663 
	C213.363007,294.564240 211.653336,293.814301 209.943665,293.064362 
	C209.943665,293.064362 210.000000,293.000000 210.294388,292.730255 
	C209.700485,291.975525 208.812195,291.490540 207.923904,291.005554 
	C207.923904,291.005554 208.000381,291.001129 208.067917,290.679077 
	C204.141647,287.570129 200.147827,284.783234 196.154022,281.996338 
	C199.366669,280.014832 202.399139,277.620026 205.824615,276.126709 
	C217.644211,270.974121 229.581482,266.088715 241.510025,261.189423 
	C258.802185,254.087158 276.136505,247.087524 293.432465,239.994507 
	C306.441315,234.659622 319.593872,229.620804 332.306427,223.649643 
	C336.325348,221.761978 339.364502,217.493698 342.447052,213.961502 
	C352.356598,202.606461 362.077057,191.086365 372.394745,179.293243 
	C373.261230,178.284714 373.603394,177.612885 373.945557,176.941071 
	C373.945557,176.941071 373.989532,177.000931 374.358276,177.163666 
	C374.807281,176.858017 374.887512,176.389618 374.967773,175.921219 
	C374.967773,175.921219 374.994995,175.989807 375.323059,176.257843 
	C376.081482,175.662491 376.511871,174.799118 376.942261,173.935760 
	C376.942230,173.935745 377.000000,174.000000 377.243988,174.306915 
	C378.324493,173.717300 379.161011,172.820770 379.997528,171.924240 
	C379.997528,171.924240 379.996216,171.996262 380.366577,172.136948 
	C381.137848,171.497818 381.538788,170.718018 381.939697,169.938202 
	C381.939697,169.938202 381.997772,169.997208 382.192841,170.289612 
	C383.594604,169.772064 384.801270,168.962128 386.007965,168.152161 
	C395.744324,164.089935 405.644073,160.375061 415.181366,155.889481 
	C432.345490,147.816879 446.416473,135.711990 457.195740,120.216560 
	C468.870361,103.434036 479.668488,86.044403 491.031738,69.041725 
	C498.049133,58.541698 504.878845,47.843002 512.790161,38.038227 
	C518.519531,30.937662 525.784546,24.319868 535.929321,25.263054 
	C540.237000,25.663553 545.181396,28.064732 548.239258,31.143129 
	C553.885437,36.827221 558.657654,43.472359 563.223267,50.109688 
	C567.429504,56.224518 571.266968,62.665028 574.578064,69.305519 
	C578.835876,77.844681 582.334656,86.759323 586.302551,95.447296 
	C588.365295,99.963974 591.033447,104.219925 592.888672,108.811623 
	C595.258789,114.677940 597.025940,120.785233 599.166199,126.748009 
	C600.459473,130.351303 602.012390,133.860474 603.370605,137.441544 
	C606.845581,146.603592 610.228149,155.800919 613.738647,164.949203 
	C617.573547,174.943008 621.580017,184.871231 625.380920,194.877716 
	C628.357727,202.714600 631.282776,210.577545 633.955994,218.521408 
	C636.234070,225.290802 637.873352,232.279190 640.247620,239.011124 
	C642.772766,246.170792 645.920776,253.108139 648.630005,260.206238 
	C651.425293,267.530029 654.040344,274.923065 656.697021,282.299255 
	C660.138672,291.855011 663.492371,301.442688 666.977173,310.982574 
	C671.151489,322.409943 675.479187,333.781372 679.636536,345.214783 
	C682.971130,354.385468 685.838135,363.738495 689.483459,372.780487 
	C693.456726,382.635803 698.110291,392.215973 702.404358,401.943848 
	C702.944397,403.167389 703.102112,404.559692 703.735596,406.385010 
	C704.453186,408.374817 704.872131,409.853394 705.421875,411.793488 
	C701.440979,409.713104 698.097473,407.965820 694.753967,406.218567 
	C694.753967,406.218536 694.874451,406.072601 694.879761,405.786896 
	C693.900757,405.009216 692.916565,404.517242 691.932312,404.025269 
	C691.932312,404.025269 691.997192,404.009277 692.097595,403.700378 
	C690.847046,402.589508 689.496033,401.787537 688.145081,400.985596 
M369.718018,314.337921 
	C369.799194,313.866455 369.880371,313.394989 369.992401,312.991425 
	C369.992401,312.991425 369.925781,312.957855 370.662964,313.368286 
	C370.771271,312.886658 370.879578,312.405029 370.993042,311.992554 
	C370.993042,311.992554 370.923981,311.986176 371.670380,312.221558 
	C371.775360,311.789001 371.880341,311.356476 371.996796,310.989777 
	C371.996796,310.989777 371.934479,310.965576 372.525208,311.414642 
	C373.023499,310.655792 373.521820,309.896912 374.649628,308.854980 
	C381.344238,300.790070 388.177277,292.834869 394.683838,284.621033 
	C398.890869,279.310059 398.683044,279.132599 393.195862,274.704468 
	C391.800629,273.578522 390.357483,272.511322 388.925812,271.431122 
	C374.104401,260.248077 359.253998,249.103119 344.477966,237.860428 
	C341.077789,235.273346 337.668488,236.354614 334.470459,237.674744 
	C327.432526,240.579956 320.613281,244.012314 313.592926,246.963364 
	C295.246307,254.675430 276.885803,262.358734 258.438660,269.825745 
	C248.140045,273.994415 237.640732,277.665436 227.279984,281.684784 
	C226.027252,282.170776 225.075653,283.433044 223.894119,284.410278 
	C226.557236,286.674377 228.797470,288.878448 231.325272,290.678772 
	C246.203720,301.275208 261.112640,311.829803 276.084656,322.293579 
	C286.343109,329.463135 296.636383,336.592224 307.134796,343.399017 
	C308.730408,344.433563 311.892517,344.393494 313.705200,343.533447 
	C325.213470,338.073059 336.542938,332.236176 347.938538,326.537811 
	C351.660767,324.676483 355.404388,322.858032 359.785492,320.907532 
	C359.900818,320.816833 360.111786,320.727142 360.112732,320.635315 
	C360.115143,320.400604 360.023956,320.164948 359.994598,319.993500 
	C359.994598,319.993500 359.932159,319.965820 360.593323,320.420288 
	C361.063110,319.920044 361.532898,319.419769 361.997131,318.988770 
	C361.997131,318.988770 361.929840,318.971436 362.623840,319.384094 
	C364.074493,318.232178 365.525116,317.080231 366.990326,315.994446 
	C366.990326,315.994446 366.923187,315.985962 367.729309,316.221985 
	C367.805786,315.789856 367.882233,315.357697 367.991272,314.992157 
	C367.991272,314.992157 367.923492,314.962158 368.716949,315.337860 
	C368.798645,314.866394 368.880341,314.394958 368.990753,313.990784 
	C368.990753,313.990784 368.923431,313.962128 369.718018,314.337921 
M477.782562,124.614189 
	C479.888611,119.267593 481.994659,113.920998 484.100708,108.574402 
	C483.722046,108.376953 483.343414,108.179504 482.964752,107.982056 
	C480.698151,111.662323 478.431549,115.342598 475.859009,119.650780 
	C466.843018,131.285965 457.822784,142.848785 446.324524,152.317474 
	C434.915283,161.712830 422.879761,169.630814 408.482117,173.712814 
	C403.456818,175.137589 398.213470,176.868134 393.965515,179.770309 
	C377.302826,191.154099 365.475494,207.302795 353.084381,222.832642 
	C351.697418,224.570862 351.506714,226.111984 354.106995,227.972214 
	C363.263245,234.522583 372.027130,241.619553 380.980896,248.455414 
	C387.742432,253.617599 394.445618,258.873474 401.446716,263.692596 
	C403.230530,264.920441 406.734009,265.747009 408.233978,264.811798 
	C410.643890,263.309235 412.330872,260.348389 413.817200,257.717773 
	C418.775574,248.942032 423.487579,240.027405 428.335724,231.188904 
	C431.951111,224.597717 435.892548,218.171143 439.218536,211.438934 
	C443.758789,202.249100 448.005737,192.905457 452.103027,183.507675 
	C459.176666,167.283157 466.000275,150.949783 473.020691,134.701782 
	C474.431335,131.437027 476.251587,128.349243 477.782562,124.614189 
z"/>
</svg>