<svg width="27" height="52" viewBox="0 0 27 52" fill="none" xmlns="http://www.w3.org/2000/svg">
<path d="M17.3855 0.930584C16.7949 0.349673 15.8451 0.357547 15.2642 0.948169C14.6833 1.53879 14.6912 2.48851 15.2818 3.06942L17.3855 0.930584ZM0.451953 42.5978C0.0651857 43.3304 0.345538 44.2378 1.07814 44.6246L13.0165 50.9273C13.7491 51.3141 14.6566 51.0337 15.0433 50.3011C15.4301 49.5685 15.1497 48.6611 14.4171 48.2743L3.80524 42.6719L9.40768 32.06C9.79444 31.3274 9.51409 30.42 8.78149 30.0332C8.04889 29.6464 7.14147 29.9268 6.7547 30.6594L0.451953 42.5978ZM15.2818 3.06942C21.88 9.55912 24.7464 17.25 22.9929 24.1526C21.2444 31.0355 14.751 37.7202 1.33566 41.8649L2.22122 44.7312C16.1731 40.4208 23.7946 33.1812 25.9005 24.8913C28.0014 16.6211 24.4618 7.89053 17.3855 0.930584L15.2818 3.06942Z" fill="#E15544"/>
</svg>
